<svg width="331" height="58" viewBox="0 0 331 58" fill="none" xmlns="http://www.w3.org/2000/svg">
<g clip-path="url(#clip0_64_1015)">
<path d="M0 14.5341L25.0037 0L50.0075 14.5836L25.0037 29.0558L0 14.5341Z" fill="url(#paint0_linear_64_1015)"/>
<path d="M25.0039 29.0568L50.0076 14.5352V43.5042L25.0039 58.0011V29.0568Z" fill="url(#paint1_linear_64_1015)"/>
<path d="M25.0037 29.0568L0 14.5352V43.5042L25.0037 58.0011V29.0568Z" fill="url(#paint2_linear_64_1015)"/>
<path d="M0.0859375 39.091L25.0897 53.5755L25.0032 29.0547L0.0859375 39.091Z" fill="url(#paint3_linear_64_1015)"/>
<path d="M50.0076 39.1777L25.0039 53.6499V29.0547L50.0076 39.1777Z" fill="url(#paint4_linear_64_1015)"/>
<path d="M33.239 24.2732V34.5202L24.9785 39.2658V48.0878L42.4256 37.9648V18.9453L33.239 24.2732Z" fill="url(#paint5_linear_64_1015)"/>
<path d="M17.3106 34.6943V24.596L8.29688 19.3672V38.399L25.0031 48.1256V39.2416L17.3106 34.6943Z" fill="url(#paint6_linear_64_1015)"/>
<path d="M35.5232 14.6846L17.2859 24.6218L8.29688 19.3434L26.5342 9.40625L35.5232 14.6846Z" fill="url(#paint7_linear_64_1015)"/>
<path d="M85.0246 24.0619C84.506 23.1202 83.8021 22.4016 82.9008 21.906C81.9994 21.4104 80.9499 21.1625 79.7522 21.1625C78.4186 21.1625 77.2456 21.4599 76.2208 22.067C75.1959 22.6742 74.3933 23.5291 73.813 24.6443C73.2327 25.7594 72.9487 27.048 72.9487 28.5101C72.9487 29.9722 73.245 31.3228 73.8254 32.4379C74.418 33.5531 75.233 34.4204 76.2825 35.0151C77.332 35.6223 78.5545 35.9196 79.9374 35.9196C81.6537 35.9196 83.049 35.4612 84.1479 34.5443C85.2345 33.6274 85.9506 32.3636 86.2963 30.728H81.061V27.2835H90.7291V31.2112C90.4328 32.7848 89.7907 34.2345 88.8029 35.5603C87.8151 36.8985 86.5556 37.9641 84.9999 38.7695C83.4441 39.5748 81.7031 39.9713 79.7892 39.9713C77.6284 39.9713 75.6775 39.4881 73.9241 38.5093C72.1831 37.5304 70.8126 36.1798 69.8124 34.4328C68.8123 32.6857 68.3184 30.7156 68.3184 28.5101C68.3184 26.3046 68.8123 24.3221 69.8124 22.5627C70.8126 20.8156 72.1831 19.4527 73.9241 18.4738C75.6651 17.4949 77.616 17.0117 79.7522 17.0117C82.2711 17.0117 84.4689 17.6312 86.3334 18.8579C88.1979 20.097 89.482 21.8316 90.1858 24.0619H85.0122H85.0246Z" fill="white"/>
<path d="M93.1862 25.9975C93.9024 24.5974 94.8778 23.5318 96.1126 22.776C97.3473 22.0202 98.7179 21.6484 100.237 21.6484C101.57 21.6484 102.731 21.921 103.719 22.4538C104.719 22.9866 105.509 23.6681 106.114 24.4859V21.9458H110.646V39.7882H106.114V37.1738C105.534 38.0163 104.743 38.7102 103.719 39.2554C102.706 39.8005 101.533 40.0731 100.2 40.0731C98.7055 40.0731 97.335 39.689 96.1002 38.9084C94.8655 38.1278 93.89 37.0498 93.1738 35.6373C92.4577 34.2248 92.0996 32.614 92.0996 30.7926C92.0996 28.9712 92.4577 27.3852 93.1738 25.9975H93.1862ZM105.472 28.0419C105.04 27.2613 104.472 26.6542 103.743 26.2329C103.015 25.8117 102.237 25.601 101.397 25.601C100.558 25.601 99.7921 25.8117 99.0883 26.2081C98.3845 26.6046 97.8042 27.2118 97.372 27.9924C96.9275 28.773 96.7176 29.7023 96.7176 30.7802C96.7176 31.8582 96.9398 32.7875 97.372 33.5929C97.8042 34.3983 98.3845 35.0178 99.1007 35.4515C99.8168 35.8851 100.582 36.0958 101.397 36.0958C102.212 36.0958 103.015 35.8851 103.743 35.4639C104.472 35.0426 105.052 34.4478 105.472 33.6548C105.892 32.8619 106.114 31.9326 106.114 30.8298C106.114 29.7271 105.904 28.7978 105.472 28.0048V28.0419Z" fill="white"/>
<path d="M140.958 23.6909C142.292 25.029 142.959 26.9124 142.959 29.3162V39.7861H138.464V29.9233C138.464 28.5232 138.106 27.4576 137.402 26.7141C136.699 25.9707 135.735 25.599 134.513 25.599C133.291 25.599 132.328 25.9707 131.611 26.7141C130.895 27.4576 130.537 28.5232 130.537 29.9233V39.7861H126.043V29.9233C126.043 28.5232 125.685 27.4576 124.981 26.7141C124.277 25.9707 123.314 25.599 122.091 25.599C120.869 25.599 119.869 25.9707 119.153 26.7141C118.437 27.4576 118.078 28.5232 118.078 29.9233V39.7861H113.584V21.9438H118.078V24.0997C118.659 23.3439 119.4 22.7616 120.313 22.3279C121.227 21.8942 122.227 21.6836 123.314 21.6836C124.709 21.6836 125.944 21.981 127.043 22.5633C128.129 23.1581 128.981 24.0006 129.574 25.091C130.154 24.0626 130.994 23.2324 132.093 22.6129C133.192 21.9934 134.39 21.6836 135.674 21.6836C137.859 21.6836 139.613 22.3527 140.958 23.6909Z" fill="white"/>
<path d="M161.555 32.2175H148.553C148.664 33.5062 149.109 34.5222 149.899 35.2408C150.689 35.9719 151.665 36.3312 152.825 36.3312C154.492 36.3312 155.678 35.6125 156.394 34.1752H161.246C160.728 35.8975 159.752 37.31 158.295 38.4128C156.838 39.5156 155.048 40.0731 152.936 40.0731C151.22 40.0731 149.689 39.689 148.331 38.9332C146.973 38.165 145.911 37.087 145.157 35.6993C144.392 34.2992 144.021 32.6884 144.021 30.867C144.021 29.0456 144.392 27.3976 145.145 25.9975C145.898 24.5974 146.948 23.5318 148.294 22.776C149.64 22.0202 151.195 21.6484 152.949 21.6484C154.702 21.6484 156.159 22.0078 157.493 22.7388C158.826 23.4698 159.863 24.5106 160.604 25.8488C161.345 27.187 161.715 28.7358 161.715 30.4705C161.715 31.1148 161.678 31.6971 161.592 32.2052L161.555 32.2175ZM157.023 29.1943C156.999 28.0296 156.579 27.1003 155.776 26.4064C154.961 25.7125 153.974 25.3656 152.788 25.3656C151.677 25.3656 150.739 25.7001 149.973 26.3816C149.207 27.0631 148.751 27.9924 148.578 29.1943H157.023Z" fill="white"/>
<path d="M166.407 39.2801C165.246 38.7597 164.333 38.0411 163.666 37.1366C162.987 36.2321 162.629 35.2408 162.555 34.1381H167.086C167.173 34.8196 167.506 35.3895 168.099 35.848C168.691 36.294 169.42 36.5294 170.297 36.5294C171.173 36.5294 171.815 36.356 172.297 36.009C172.778 35.6621 173.013 35.2284 173.013 34.6833C173.013 34.1009 172.717 33.6672 172.136 33.3823C171.544 33.0973 170.605 32.7751 169.321 32.4282C167.988 32.106 166.913 31.7715 166.061 31.4246C165.209 31.0776 164.493 30.5572 163.876 29.851C163.271 29.1447 162.962 28.1906 162.962 26.9888C162.962 25.9975 163.246 25.093 163.814 24.2876C164.382 23.4698 165.197 22.8255 166.259 22.3547C167.321 21.8839 168.568 21.6484 170 21.6484C172.124 21.6484 173.803 22.1812 175.075 23.2468C176.335 24.3124 177.038 25.7497 177.162 27.5463H172.865C172.803 26.8401 172.507 26.2701 171.976 25.8488C171.445 25.4275 170.753 25.2169 169.877 25.2169C169.062 25.2169 168.432 25.3656 168 25.663C167.555 25.9603 167.346 26.3816 167.346 26.9144C167.346 27.5215 167.642 27.9676 168.247 28.2774C168.84 28.5871 169.778 28.9093 171.037 29.2314C172.322 29.5536 173.383 29.8881 174.211 30.2351C175.038 30.582 175.767 31.1148 176.372 31.8334C176.977 32.5521 177.298 33.5062 177.322 34.6833C177.322 35.7117 177.038 36.641 176.47 37.4587C175.902 38.2765 175.087 38.9084 174.026 39.3793C172.964 39.8377 171.729 40.0731 170.321 40.0731C168.914 40.0731 167.555 39.8129 166.407 39.2801Z" fill="white"/>
<path d="M193.597 25.6387H190.486V39.7763H185.929V25.6387H183.904V21.934H185.929V21.0295C185.929 18.8363 186.547 17.2256 187.794 16.1972C189.029 15.1687 190.905 14.6855 193.412 14.7475V18.5514C192.325 18.5266 191.56 18.7124 191.128 19.0965C190.695 19.4806 190.486 20.1869 190.486 21.1905V21.934H193.597V25.6387Z" fill="white"/>
<path d="M197.548 38.9325C196.178 38.1643 195.103 37.0863 194.325 35.6986C193.547 34.2985 193.152 32.6877 193.152 30.8663C193.152 29.0449 193.56 27.4341 194.362 26.034C195.165 24.6339 196.264 23.5559 197.659 22.8001C199.054 22.0319 200.598 21.6602 202.314 21.6602C204.031 21.6602 205.574 22.0443 206.969 22.8001C208.364 23.5683 209.451 24.6463 210.254 26.034C211.056 27.4341 211.464 29.0449 211.464 30.8663C211.464 32.6877 211.056 34.2985 210.229 35.6986C209.402 37.0987 208.29 38.1767 206.895 38.9325C205.488 39.7007 203.919 40.0725 202.191 40.0725C200.462 40.0725 198.931 39.6884 197.573 38.9325H197.548ZM204.463 35.5499C205.179 35.1534 205.747 34.5587 206.179 33.7657C206.611 32.9727 206.821 32.0062 206.821 30.8663C206.821 29.1688 206.377 27.8678 205.488 26.9509C204.599 26.034 203.512 25.5879 202.228 25.5879C200.944 25.5879 199.869 26.0464 199.005 26.9509C198.141 27.8678 197.709 29.1688 197.709 30.8663C197.709 32.5638 198.128 33.8648 198.98 34.7817C199.832 35.6986 200.894 36.1447 202.178 36.1447C202.993 36.1447 203.759 35.9464 204.475 35.5499H204.463Z" fill="white"/>
<path d="M219.414 22.489C220.34 21.9562 221.415 21.6836 222.612 21.6836V26.4168H221.427C220.019 26.4168 218.945 26.7513 218.229 27.4204C217.513 28.0895 217.155 29.2418 217.155 30.9021V39.7985H212.66V21.9562H217.155V24.7317C217.735 23.79 218.488 23.0466 219.414 22.5138V22.489Z" fill="white"/>
<path d="M227.514 25.9975C228.23 24.5974 229.206 23.5318 230.441 22.776C231.675 22.0202 233.046 21.6484 234.565 21.6484C235.898 21.6484 237.059 21.921 238.047 22.4538C239.047 22.9866 239.837 23.6681 240.442 24.4859V21.9458H244.974V39.7882H240.442V37.1738C239.862 38.0163 239.072 38.7102 238.047 39.2554C237.034 39.8005 235.861 40.0731 234.528 40.0731C233.034 40.0731 231.663 39.689 230.428 38.9084C229.194 38.1278 228.218 37.0498 227.502 35.6373C226.786 34.2248 226.428 32.614 226.428 30.7926C226.428 28.9712 226.786 27.3852 227.502 25.9975H227.514ZM239.8 28.0419C239.368 27.2613 238.8 26.6542 238.071 26.2329C237.343 25.8117 236.565 25.601 235.725 25.601C234.886 25.601 234.12 25.8117 233.416 26.2081C232.713 26.6046 232.132 27.2118 231.7 27.9924C231.256 28.773 231.046 29.7023 231.046 30.7802C231.046 31.8582 231.268 32.7875 231.7 33.5929C232.132 34.3983 232.713 35.0178 233.429 35.4515C234.145 35.8851 234.91 36.0958 235.725 36.0958C236.54 36.0958 237.343 35.8851 238.071 35.4639C238.8 35.0426 239.38 34.4478 239.8 33.6548C240.22 32.8619 240.442 31.9326 240.442 30.8298C240.442 29.7271 240.232 28.7978 239.8 28.0048V28.0419Z" fill="white"/>
<path d="M257.643 14.7461V39.7873H253.148V14.7461H257.643Z" fill="white"/>
<path d="M260.767 19.0577C260.248 18.5497 259.977 17.9302 259.977 17.1743C259.977 16.4185 260.236 15.799 260.767 15.291C261.298 14.783 261.952 14.5352 262.742 14.5352C263.533 14.5352 264.187 14.783 264.718 15.291C265.237 15.799 265.508 16.4309 265.508 17.1743C265.508 17.9178 265.249 18.5497 264.718 19.0577C264.199 19.5657 263.533 19.8135 262.742 19.8135C261.952 19.8135 261.298 19.5657 260.767 19.0577ZM264.953 21.9447V39.787H260.458V21.9447H264.953Z" fill="white"/>
<path d="M276.003 35.6251L280.498 21.9336H285.276L278.695 39.7759H273.238L266.693 21.9336H271.509L276.003 35.6251Z" fill="white"/>
<path d="M287.314 19.0577C286.795 18.5497 286.523 17.9302 286.523 17.1743C286.523 16.4185 286.783 15.799 287.314 15.291C287.845 14.783 288.499 14.5352 289.289 14.5352C290.08 14.5352 290.734 14.783 291.265 15.291C291.783 15.799 292.055 16.4309 292.055 17.1743C292.055 17.9178 291.796 18.5497 291.265 19.0577C290.746 19.5657 290.08 19.8135 289.289 19.8135C288.499 19.8135 287.845 19.5657 287.314 19.0577ZM291.499 21.9447V39.787H287.005V21.9447H291.499Z" fill="white"/>
<path d="M309.49 23.6909C310.799 25.029 311.453 26.9124 311.453 29.3162V39.7861H306.959V29.9233C306.959 28.5108 306.601 27.4204 305.897 26.6522C305.193 25.8964 304.23 25.5123 303.007 25.5123C301.785 25.5123 300.785 25.8964 300.069 26.6522C299.353 27.4204 298.994 28.5108 298.994 29.9233V39.7861H294.5V21.9438H298.994V24.1617C299.6 23.3935 300.365 22.7864 301.291 22.3403C302.217 21.8942 303.242 21.6836 304.353 21.6836C306.477 21.6836 308.181 22.3527 309.49 23.6909Z" fill="white"/>
<path d="M324.098 22.4408C325.111 22.9612 325.901 23.6426 326.469 24.4852V21.9451H331V39.9238C331 41.5717 330.667 43.0586 330 44.3596C329.334 45.6606 328.346 46.689 327.012 47.4572C325.691 48.2254 324.073 48.5971 322.197 48.5971C319.665 48.5971 317.603 48.0024 315.986 46.8253C314.368 45.6482 313.455 44.0374 313.245 41.993H317.702C317.937 42.8108 318.443 43.4551 319.233 43.9383C320.023 44.4215 320.962 44.657 322.073 44.657C323.382 44.657 324.444 44.2605 325.246 43.4799C326.061 42.6993 326.469 41.5098 326.469 39.9238V37.1483C325.889 37.9909 325.098 38.6847 324.073 39.2423C323.049 39.7999 321.9 40.0849 320.591 40.0849C319.097 40.0849 317.727 39.7007 316.48 38.9201C315.233 38.1519 314.257 37.0616 313.541 35.649C312.825 34.2365 312.467 32.6258 312.467 30.8044C312.467 28.983 312.825 27.397 313.541 26.0092C314.257 24.6091 315.233 23.5435 316.467 22.7877C317.702 22.0319 319.073 21.6602 320.591 21.6602C321.925 21.6602 323.086 21.9204 324.086 22.4532L324.098 22.4408ZM325.827 28.0413C325.395 27.2607 324.827 26.6535 324.098 26.2323C323.37 25.811 322.592 25.6003 321.752 25.6003C320.912 25.6003 320.147 25.811 319.443 26.2075C318.739 26.604 318.159 27.2111 317.727 27.9917C317.282 28.7723 317.072 29.7016 317.072 30.7796C317.072 31.8576 317.295 32.7868 317.727 33.5922C318.159 34.3976 318.739 35.0171 319.455 35.4508C320.172 35.8845 320.937 36.0951 321.752 36.0951C322.567 36.0951 323.37 35.8845 324.098 35.4632C324.827 35.0419 325.407 34.4472 325.827 33.6542C326.247 32.8612 326.469 31.9319 326.469 30.8291C326.469 29.7264 326.259 28.7971 325.827 28.0041V28.0413Z" fill="white"/>
</g>
<defs>
<linearGradient id="paint0_linear_64_1015" x1="24.5716" y1="-4.81991" x2="25.243" y2="25.0535" gradientUnits="userSpaceOnUse">
<stop stop-color="#7C06B8"/>
<stop offset="0.75" stop-color="#D410A9"/>
<stop offset="1" stop-color="#F213A4"/>
</linearGradient>
<linearGradient id="paint1_linear_64_1015" x1="17.1756" y1="25.6866" x2="48.9924" y2="42.1252" gradientUnits="userSpaceOnUse">
<stop stop-color="#7C06B8"/>
<stop offset="1" stop-color="#F213A4"/>
</linearGradient>
<linearGradient id="paint2_linear_64_1015" x1="-24.9914" y1="55.7088" x2="29.8005" y2="27.4899" gradientUnits="userSpaceOnUse">
<stop stop-color="#7C06B8"/>
<stop offset="1" stop-color="#F213A4"/>
</linearGradient>
<linearGradient id="paint3_linear_64_1015" x1="6.58073" y1="28.8688" x2="26.7302" y2="46.3197" gradientUnits="userSpaceOnUse">
<stop stop-color="#7C06B8"/>
<stop offset="0.75" stop-color="#D410A9"/>
<stop offset="1" stop-color="#F213A4"/>
</linearGradient>
<linearGradient id="paint4_linear_64_1015" x1="40.1667" y1="29.3645" x2="29.2557" y2="48.7232" gradientUnits="userSpaceOnUse">
<stop stop-color="#7C06B8"/>
<stop offset="0.75" stop-color="#D410A9"/>
<stop offset="1" stop-color="#F213A4"/>
</linearGradient>
<linearGradient id="paint5_linear_64_1015" x1="24.9785" y1="33.5166" x2="42.4009" y2="33.5166" gradientUnits="userSpaceOnUse">
<stop stop-color="#D1D3D4"/>
<stop offset="0.08" stop-color="#D8DADB"/>
<stop offset="0.29" stop-color="#E6E8E8"/>
<stop offset="0.56" stop-color="#EEF0F0"/>
<stop offset="1" stop-color="#F1F2F2"/>
</linearGradient>
<linearGradient id="paint6_linear_64_1015" x1="16.6561" y1="48.1256" x2="16.6561" y2="19.3548" gradientUnits="userSpaceOnUse">
<stop stop-color="#E6E7E8"/>
<stop offset="0.44" stop-color="#E2E3E4"/>
<stop offset="0.85" stop-color="#D7D9DA"/>
<stop offset="1" stop-color="#D1D3D4"/>
</linearGradient>
<linearGradient id="paint7_linear_64_1015" x1="13.952" y1="25.0059" x2="29.9357" y2="9.0777" gradientUnits="userSpaceOnUse">
<stop stop-color="#D1D3D4"/>
<stop offset="0.02" stop-color="#D3D5D6"/>
<stop offset="0.18" stop-color="#E7E8E8"/>
<stop offset="0.36" stop-color="#F5F5F5"/>
<stop offset="0.59" stop-color="#FDFDFD"/>
<stop offset="1" stop-color="white"/>
</linearGradient>
<clipPath id="clip0_64_1015">
<rect width="331" height="58" fill="white"/>
</clipPath>
</defs>
</svg>
