<?xml version="1.0" encoding="utf-8"?>
<!-- Generator: Adobe Illustrator 27.5.0, SVG Export Plug-In . SVG Version: 6.00 Build 0)  -->
<svg version="1.1" id="Layer_1" xmlns="http://www.w3.org/2000/svg" xmlns:xlink="http://www.w3.org/1999/xlink" x="0px" y="0px"
	 viewBox="0 0 673.5 117.7" style="enable-background:new 0 0 673.5 117.7;" xml:space="preserve">
<style type="text/css">
	.st0{fill:url(#SVGID_1_);}
	.st1{fill:url(#SVGID_00000060012838839635294250000013573179966131460996_);}
	.st2{fill:url(#SVGID_00000006688825980891646610000002929694854778715272_);}
	.st3{fill:url(#SVGID_00000027565120974068491710000010556167782422221233_);}
	.st4{fill:url(#SVGID_00000056410176969102140860000009931832987856608952_);}
	.st5{fill:#FFFFFF;}
</style>
<linearGradient id="SVGID_1_" gradientUnits="userSpaceOnUse" x1="49.9881" y1="546.9699" x2="51.348" y2="607.5899" gradientTransform="matrix(1 0 0 1 0 -556.7598)">
	<stop  offset="0" style="stop-color:#7C06B8"/>
	<stop  offset="0.75" style="stop-color:#D410A9"/>
	<stop  offset="1" style="stop-color:#F213A4"/>
</linearGradient>
<path class="st0" d="M0,29.5L50.9,0l50.9,29.6L50.9,59L0,29.5L0,29.5z"/>
<linearGradient id="SVGID_00000052097853514362513470000012573285052788986038_" gradientUnits="userSpaceOnUse" x1="34.9173" y1="608.9153" x2="99.5873" y2="642.4153" gradientTransform="matrix(1 0 0 1 0 -556.7598)">
	<stop  offset="0" style="stop-color:#7C06B8"/>
	<stop  offset="1" style="stop-color:#F213A4"/>
</linearGradient>
<path style="fill:url(#SVGID_00000052097853514362513470000012573285052788986038_);" d="M50.9,59l50.9-29.5v58.8l-50.9,29.4V59z"/>
<linearGradient id="SVGID_00000058561926238992220350000008391462725393049478_" gradientUnits="userSpaceOnUse" x1="-50.8759" y1="669.7574" x2="60.4842" y2="612.2575" gradientTransform="matrix(1 0 0 1 0 -556.7598)">
	<stop  offset="0" style="stop-color:#7C06B8"/>
	<stop  offset="1" style="stop-color:#F213A4"/>
</linearGradient>
<path style="fill:url(#SVGID_00000058561926238992220350000008391462725393049478_);" d="M50.9,59L0,29.5v58.8l50.9,29.4V59z"/>
<linearGradient id="SVGID_00000103960403853674595450000002680392477799924646_" gradientUnits="userSpaceOnUse" x1="13.368" y1="615.3523" x2="54.2781" y2="650.8723" gradientTransform="matrix(1 0 0 1 0 -556.7598)">
	<stop  offset="0" style="stop-color:#7C06B8"/>
	<stop  offset="0.75" style="stop-color:#D410A9"/>
	<stop  offset="1" style="stop-color:#F213A4"/>
</linearGradient>
<path style="fill:url(#SVGID_00000103960403853674595450000002680392477799924646_);" d="M0.2,79.3L51,108.7L50.9,59L0.2,79.3
	L0.2,79.3z"/>
<linearGradient id="SVGID_00000035525103679495059840000012906129998420923293_" gradientUnits="userSpaceOnUse" x1="81.7234" y1="616.3517" x2="59.6133" y2="655.6817" gradientTransform="matrix(1 0 0 1 0 -556.7598)">
	<stop  offset="0" style="stop-color:#7C06B8"/>
	<stop  offset="0.75" style="stop-color:#D410A9"/>
	<stop  offset="1" style="stop-color:#F213A4"/>
</linearGradient>
<path style="fill:url(#SVGID_00000035525103679495059840000012906129998420923293_);" d="M101.7,79.5l-50.9,29.4V59L101.7,79.5z"/>
<polygon class="st5" points="86.3,38.4 67.6,49.2 67.6,70 50.9,79.7 50.9,79.6 35.2,70.4 35.2,49.9 72.3,29.8 54,19.1 16.9,39.2 
	24,43.4 16.9,39.3 16.9,77.9 50.9,97.7 50.9,97.5 86.3,77 "/>
<path class="st5" d="M173,48.8c-1.1-1.9-2.5-3.4-4.3-4.4s-4-1.5-6.4-1.5c-2.7,0-5.1,0.6-7.2,1.8c-2.1,1.2-3.7,3-4.9,5.2
	s-1.8,4.9-1.8,7.8s0.6,5.7,1.8,8c1.2,2.3,2.9,4,5,5.2c2.1,1.2,4.6,1.8,7.4,1.8c3.5,0,6.3-0.9,8.6-2.8c2.2-1.9,3.7-4.4,4.4-7.7h-10.6
	v-7h19.7v8c-0.6,3.2-1.9,6.1-3.9,8.8c-2,2.7-4.6,4.9-7.7,6.5s-6.7,2.4-10.6,2.4c-4.4,0-8.4-1-11.9-3c-3.5-2-6.3-4.7-8.4-8.3
	c-2-3.5-3-7.5-3-12s1-8.5,3-12.1c2-3.5,4.8-6.3,8.4-8.3c3.5-2,7.5-3,11.9-3c5.1,0,9.6,1.3,13.4,3.8c3.8,2.5,6.4,6,7.8,10.6L173,48.8
	L173,48.8L173,48.8z"/>
<path class="st5" d="M189.6,52.8c1.5-2.8,3.4-5,5.9-6.5c2.5-1.5,5.3-2.3,8.4-2.3c2.7,0,5.1,0.5,7.1,1.6c2,1.1,3.6,2.5,4.9,4.1v-5.2
	h9.2v36.2h-9.2v-5.3c-1.2,1.7-2.8,3.1-4.9,4.2c-2.1,1.1-4.4,1.7-7.2,1.7c-3,0-5.8-0.8-8.3-2.4c-2.5-1.6-4.5-3.8-5.9-6.6
	c-1.5-2.9-2.2-6.1-2.2-9.8S188.1,55.6,189.6,52.8L189.6,52.8L189.6,52.8z M214.6,56.9c-0.9-1.6-2-2.8-3.5-3.7S208,52,206.3,52
	s-3.3,0.4-4.7,1.2s-2.6,2-3.5,3.6c-0.9,1.6-1.3,3.5-1.3,5.7s0.4,4.1,1.3,5.7c0.9,1.6,2.1,2.9,3.5,3.8s3,1.3,4.7,1.3s3.3-0.4,4.8-1.3
	c1.5-0.8,2.7-2.1,3.5-3.7c0.9-1.6,1.3-3.5,1.3-5.7S215.5,58.5,214.6,56.9L214.6,56.9L214.6,56.9z"/>
<path class="st5" d="M286.8,48.1c2.7,2.7,4.1,6.5,4.1,11.4v21.2h-9.1v-20c0-2.8-0.7-5-2.2-6.5s-3.4-2.3-5.9-2.3s-4.4,0.8-5.9,2.3
	c-1.5,1.5-2.2,3.7-2.2,6.5v20h-9.1v-20c0-2.8-0.7-5-2.2-6.5s-3.4-2.3-5.9-2.3s-4.5,0.8-6,2.3s-2.2,3.7-2.2,6.5v20h-9.1V44.5h9.1v4.4
	c1.2-1.5,2.7-2.7,4.6-3.6s3.9-1.3,6.1-1.3c2.8,0,5.4,0.6,7.6,1.8c2.2,1.2,3.9,2.9,5.1,5.1c1.2-2.1,2.9-3.8,5.1-5
	c2.2-1.3,4.7-1.9,7.3-1.9C280.5,44,284,45.4,286.8,48.1L286.8,48.1z"/>
<path class="st5" d="M328.7,65.4h-26.4c0.2,2.6,1.1,4.7,2.7,6.1c1.6,1.5,3.6,2.2,5.9,2.2c3.4,0,5.8-1.5,7.3-4.4h9.9
	c-1.1,3.5-3,6.4-6,8.6s-6.6,3.4-10.9,3.4c-3.5,0-6.6-0.8-9.4-2.3c-2.8-1.6-4.9-3.8-6.5-6.6c-1.6-2.8-2.3-6.1-2.3-9.8s0.8-7,2.3-9.9
	c1.5-2.8,3.7-5,6.4-6.5c2.7-1.5,5.9-2.3,9.5-2.3s6.5,0.7,9.2,2.2c2.7,1.5,4.8,3.6,6.3,6.3c1.5,2.7,2.3,5.9,2.3,9.4
	C329,63.1,329,64.3,328.7,65.4L328.7,65.4L328.7,65.4z M319.5,59.2c-0.1-2.4-0.9-4.2-2.5-5.7c-1.7-1.4-3.7-2.1-6.1-2.1
	c-2.3,0-4.2,0.7-5.7,2.1s-2.5,3.3-2.8,5.7L319.5,59.2L319.5,59.2z"/>
<path class="st5" d="M338.6,79.7c-2.4-1.1-4.2-2.5-5.6-4.3c-1.4-1.8-2.1-3.8-2.3-6.1h9.2c0.2,1.4,0.9,2.5,2.1,3.5
	c1.2,0.9,2.7,1.4,4.5,1.4s3.1-0.3,4.1-1.1c1-0.7,1.5-1.6,1.5-2.7c0-1.2-0.6-2.1-1.8-2.6c-1.2-0.6-3.1-1.2-5.7-1.9
	c-2.7-0.7-4.9-1.3-6.6-2c-1.7-0.7-3.2-1.8-4.4-3.2c-1.2-1.4-1.9-3.4-1.9-5.8c0-2,0.6-3.8,1.7-5.5c1.2-1.7,2.8-3,5-3.9
	c2.2-1,4.7-1.4,7.6-1.4c4.3,0,7.7,1.1,10.3,3.2c2.6,2.2,4,5.1,4.2,8.7h-8.7c-0.1-1.4-0.7-2.6-1.8-3.4s-2.5-1.3-4.3-1.3
	c-1.7,0-2.9,0.3-3.8,0.9c-0.9,0.6-1.3,1.5-1.3,2.5c0,1.2,0.6,2.1,1.8,2.8c1.2,0.6,3.1,1.3,5.7,1.9c2.6,0.7,4.8,1.3,6.5,2
	c1.7,0.7,3.2,1.8,4.4,3.2c1.2,1.5,1.9,3.4,1.9,5.8c0,2.1-0.6,4-1.7,5.6c-1.2,1.7-2.8,2.9-5,3.9c-2.2,0.9-4.7,1.4-7.5,1.4
	S340.9,80.8,338.6,79.7L338.6,79.7z"/>
<path class="st5" d="M393.9,52h-6.3v28.7h-9.3V52h-4.1v-7.5h4.1v-1.8c0-4.5,1.3-7.7,3.8-9.8c2.5-2.1,6.3-3.1,11.4-2.9v7.7
	c-2.2,0-3.8,0.3-4.6,1.1c-0.9,0.8-1.3,2.2-1.3,4.2v1.5h6.3L393.9,52L393.9,52z"/>
<path class="st5" d="M401.9,79c-2.8-1.6-5-3.8-6.6-6.6c-1.6-2.8-2.4-6.1-2.4-9.8s0.8-7,2.5-9.8c1.6-2.8,3.9-5,6.7-6.6
	c2.8-1.6,6-2.3,9.5-2.3s6.6,0.8,9.5,2.3c2.8,1.6,5.1,3.8,6.7,6.6c1.6,2.8,2.5,6.1,2.5,9.8s-0.8,7-2.5,9.8c-1.7,2.8-3.9,5-6.8,6.6
	c-2.9,1.6-6.1,2.3-9.6,2.3S404.7,80.5,401.9,79L401.9,79L401.9,79z M416,72.1c1.5-0.8,2.6-2,3.5-3.6s1.3-3.6,1.3-5.9
	c0-3.4-0.9-6.1-2.7-8c-1.8-1.9-4-2.8-6.6-2.8s-4.8,0.9-6.6,2.8c-1.8,1.9-2.6,4.5-2.6,8s0.9,6.1,2.6,8c1.7,1.9,3.9,2.8,6.5,2.8
	C413,73.4,414.6,73,416,72.1L416,72.1L416,72.1z"/>
<path class="st5" d="M446.4,45.6c1.9-1.1,4.1-1.6,6.5-1.6v9.6h-2.4c-2.9,0-5.1,0.7-6.5,2s-2.2,3.7-2.2,7.1v18h-9.1V44.5h9.1v5.6
	C443,48.3,444.5,46.8,446.4,45.6L446.4,45.6L446.4,45.6z"/>
<path class="st5" d="M462.9,52.8c1.5-2.8,3.4-5,5.9-6.5c2.5-1.5,5.3-2.3,8.4-2.3c2.7,0,5.1,0.5,7.1,1.6c2,1.1,3.6,2.5,4.9,4.1v-5.2
	h9.2v36.2h-9.2v-5.3c-1.2,1.7-2.8,3.1-4.9,4.2c-2.1,1.1-4.4,1.7-7.2,1.7c-3,0-5.8-0.8-8.3-2.4c-2.5-1.6-4.5-3.8-5.9-6.6
	c-1.5-2.9-2.2-6.1-2.2-9.8S461.4,55.6,462.9,52.8L462.9,52.8L462.9,52.8z M487.9,56.9c-0.9-1.6-2-2.8-3.5-3.7s-3.1-1.3-4.8-1.3
	s-3.3,0.4-4.7,1.2s-2.6,2-3.5,3.6c-0.9,1.6-1.3,3.5-1.3,5.7s0.4,4.1,1.3,5.7c0.9,1.6,2.1,2.9,3.5,3.8s3,1.3,4.7,1.3s3.3-0.4,4.8-1.3
	c1.5-0.8,2.7-2.1,3.5-3.7c0.9-1.6,1.3-3.5,1.3-5.7S488.8,58.5,487.9,56.9L487.9,56.9L487.9,56.9z"/>
<path class="st5" d="M524.2,29.9v50.8h-9.1V29.9H524.2z"/>
<path class="st5" d="M530.6,38.7c-1.1-1-1.6-2.3-1.6-3.8s0.5-2.8,1.6-3.8s2.4-1.5,4-1.5s2.9,0.5,4,1.5c1.1,1,1.6,2.3,1.6,3.8
	s-0.5,2.8-1.6,3.8c-1.1,1-2.4,1.5-4,1.5S531.6,39.7,530.6,38.7z M539.1,44.5v36.2h-9.1V44.5H539.1z"/>
<path class="st5" d="M561.6,72.3l9.1-27.8h9.7L567,80.7h-11.1l-13.3-36.2h9.8L561.6,72.3L561.6,72.3z"/>
<path class="st5" d="M584.6,38.7c-1.1-1-1.6-2.3-1.6-3.8s0.5-2.8,1.6-3.8s2.4-1.5,4-1.5s2.9,0.5,4,1.5c1.1,1,1.6,2.3,1.6,3.8
	s-0.5,2.8-1.6,3.8c-1.1,1-2.4,1.5-4,1.5S585.7,39.7,584.6,38.7z M593.1,44.5v36.2H584V44.5H593.1z"/>
<path class="st5" d="M629.7,48.1c2.7,2.7,4,6.5,4,11.4v21.2h-9.1v-20c0-2.9-0.7-5.1-2.2-6.6c-1.4-1.5-3.4-2.3-5.9-2.3
	s-4.5,0.8-6,2.3c-1.5,1.6-2.2,3.8-2.2,6.6v20h-9.1V44.5h9.1V49c1.2-1.6,2.8-2.8,4.7-3.7c1.9-0.9,4-1.3,6.2-1.3
	C623.6,44,627,45.4,629.7,48.1L629.7,48.1z"/>
<path class="st5" d="M659.4,45.5c2.1,1.1,3.7,2.4,4.8,4.2v-5.2h9.2V81c0,3.3-0.7,6.4-2,9s-3.4,4.7-6.1,6.3c-2.7,1.6-6,2.3-9.8,2.3
	c-5.1,0-9.4-1.2-12.6-3.6c-3.3-2.4-5.1-5.7-5.6-9.8h9.1c0.5,1.7,1.5,3,3.1,4c1.6,1,3.5,1.5,5.8,1.5c2.7,0,4.8-0.8,6.5-2.4
	c1.7-1.6,2.5-4,2.5-7.2v-5.6c-1.2,1.7-2.8,3.1-4.9,4.2c-2.1,1.1-4.4,1.7-7.1,1.7c-3,0-5.8-0.8-8.4-2.4c-2.5-1.6-4.5-3.8-6-6.6
	s-2.2-6.1-2.2-9.8s0.7-6.9,2.2-9.7c1.5-2.8,3.4-5,5.9-6.5c2.5-1.5,5.3-2.3,8.4-2.3C655,43.9,657.3,44.5,659.4,45.5L659.4,45.5
	L659.4,45.5z M662.9,56.9c-0.9-1.6-2-2.8-3.5-3.7c-1.5-0.8-3.1-1.3-4.8-1.3s-3.3,0.4-4.7,1.2s-2.6,2-3.5,3.6
	c-0.9,1.6-1.3,3.5-1.3,5.7s0.4,4.1,1.3,5.7c0.9,1.6,2.1,2.9,3.5,3.8s3,1.3,4.7,1.3s3.3-0.4,4.8-1.3c1.5-0.8,2.7-2.1,3.5-3.7
	c0.9-1.6,1.3-3.5,1.3-5.7S663.8,58.5,662.9,56.9L662.9,56.9L662.9,56.9z"/>
</svg>
