<svg width="56" height="56" viewBox="0 0 56 56" fill="none" xmlns="http://www.w3.org/2000/svg">
<g clip-path="url(#clip0_547_141)">
<path d="M28 56C43.464 56 56 43.464 56 28C56 12.536 43.464 0 28 0C12.536 0 0 12.536 0 28C0 43.464 12.536 56 28 56Z" fill="#F113A3"/>
<path d="M35.8416 23.555V33.7075L27.6426 38.3789V47.1158L44.9409 37.0992V18.2891L35.8416 23.555Z" fill="white"/>
<path d="M20.0163 33.8716V23.8663L11.0586 18.6797V37.5294L27.6548 47.1553V38.3618L20.0163 33.8716Z" fill="white"/>
<path d="M38.0903 14.0597L19.9993 23.8894L11.0586 18.6801L29.1666 8.84473L38.0903 14.0597Z" fill="white"/>
</g>
<defs>
<clipPath id="clip0_547_141">
<rect width="56" height="56" fill="white"/>
</clipPath>
</defs>
</svg>
